 <svg  version="1.0" xmlns="http://www.w3.org/2000/svg"  width="300.000000pt" height="157.000000pt" viewBox="0 0 300.000000 157.000000"  preserveAspectRatio="xMidYMid meet">  <g transform="translate(0.000000,157.000000) scale(0.100000,-0.100000)" fill="#ffffff" stroke="none"> <path d="M2155 1479 c-33 -4 -260 -30 -505 -58 l-445 -50 -295 9 c-162 6 -347 15 -412 20 -130 12 -148 10 -233 -31 -80 -38 -101 -67 -84 -116 15 -46 6 -181 -15 -242 -19 -51 -20 -110 -5 -181 9 -41 8 -65 -6 -127 -18 -82 -15 -150 11 -211 8 -19 14 -49 14 -66 0 -21 8 -40 23 -54 21 -20 34 -22 148 -22 68 0 171 -7 229 -15 94 -12 124 -12 304 5 159 16 215 17 268 9 48 -7 120 -7 244 0 242 15 370 14 488 -5 122 -20 215 -16 486 20 l195 27 36 39 c51 56 70 124 80 303 5 84 12 183 15 220 5 55 2 79 -15 126 -12 32 -19 66 -15 74 3 8 -2 27 -11 41 -15 23 -15 27 -1 48 23 33 20 64 -11 98 -32 35 -79 49 -166 50 -61 0 -58 -2 -126 74 -20 23 -30 26 -80 25 -31 -1 -83 -5 -116 -10z m185 -50 c6 -11 10 -32 8 -47 l-3 -27 121 -6 c66 -4 130 -12 142 -18 46 -25 16 -96 -49 -116 -33 -11 -3 -35 42 -35 43 0 47 -5 24 -30 -13 -14 -11 -22 11 -65 23 -45 25 -58 20 -125 -3 -41 -10 -145 -15 -230 -9 -153 -27 -234 -64 -281 -9 -11 -67 -23 -217 -42 -294 -39 -349 -42 -462 -23 -136 22 -531 17 -743 -9 -69 -9 -8 12 85 29 l85 15 -85 -6 c-47 -3 -193 -15 -325 -27 -205 -18 -252 -19 -325 -9 -47 6 -151 12 -232 13 -145 1 -146 1 -144 24 1 12 5 27 9 33 4 6 -1 26 -12 45 -30 52 -36 128 -15 204 15 56 16 74 6 128 -16 86 -15 136 4 182 24 56 34 223 16 251 -8 13 -12 29 -9 37 3 7 40 28 82 45 l76 32 122 -13 c67 -7 236 -12 376 -13 233 0 249 -1 186 -12 -75 -14 -94 -23 -49 -23 30 0 804 86 1069 119 210 26 252 26 265 0z"/> <path d="M356 1232 c-2 -4 -8 -25 -12 -47 l-7 -40 42 43 c22 23 41 44 41 47 0 8 -58 6 -64 -3z"/> <path d="M627 1164 c-13 -13 -7 -52 9 -58 22 -9 46 13 42 38 -3 21 -37 34 -51 20z"/> <path d="M840 1155 c-1 -5 -1 -36 0 -67 1 -32 -3 -58 -8 -58 -5 0 -40 11 -76 25 -84 32 -133 32 -196 0 -28 -14 -50 -28 -50 -30 0 -3 14 -30 31 -61 21 -36 35 -52 41 -46 7 7 2 25 -13 52 l-24 42 25 18 c14 11 28 16 32 12 4 -4 9 -73 10 -152 3 -162 21 -201 26 -57 1 48 6 87 10 87 4 0 21 -9 37 -20 23 -15 31 -29 35 -61 7 -58 26 -60 33 -5 8 57 2 73 -34 92 -27 13 -29 19 -29 70 0 49 2 55 18 50 9 -4 43 -17 75 -29 l58 -22 -2 -60 c-2 -35 1 -58 7 -55 5 3 7 48 6 103 l-4 97 36 0 c32 0 36 3 36 25 0 22 -4 25 -34 25 -24 0 -36 5 -39 18 -3 9 -6 13 -7 7z m-179 -118 c-1 -4 -1 -25 -1 -47 0 -22 -4 -40 -9 -40 -9 0 -19 70 -13 90 4 12 24 9 23 -3z"/> <path d="M923 1073 c-31 -21 -29 -33 6 -33 24 0 29 4 29 25 0 29 -5 30 -35 8z"/> <path d="M1170 1003 c0 -72 -13 -97 -33 -69 -9 12 -20 17 -31 13 -21 -8 -20 -23 4 -47 50 -50 100 -2 100 96 0 57 -2 64 -20 64 -18 0 -20 -7 -20 -57z"/> <path d="M1289 1033 c-21 -52 -49 -136 -49 -145 0 -4 11 -8 25 -8 16 0 25 6 25 15 0 8 2 15 4 15 2 0 11 3 20 6 12 4 16 0 16 -15 0 -16 6 -21 25 -21 14 0 25 3 25 7 0 22 -24 141 -32 156 -14 27 -47 21 -59 -10z"/> <path d="M1422 1048 c0 -7 -4 -48 -8 -90 l-7 -78 27 0 26 0 0 90 c0 81 -2 90 -18 90 -10 0 -19 -6 -20 -12z"/> <path d="M1590 1008 c0 -29 -3 -70 -6 -90 -6 -36 -5 -38 19 -38 23 0 26 5 29 37 2 27 8 39 21 41 15 3 17 -2 11 -37 -6 -39 -5 -41 20 -41 l26 0 0 90 c0 83 -1 90 -20 90 -16 0 -20 -7 -20 -35 0 -29 -4 -35 -21 -35 -19 0 -21 4 -16 35 5 32 4 35 -19 35 -22 0 -24 -4 -24 -52z"/> <path d="M1753 1048 c0 -7 -3 -48 -7 -90 l-8 -78 26 0 c26 0 26 1 26 74 0 41 3 81 6 90 5 12 0 16 -18 16 -14 0 -25 -6 -25 -12z"/> <path d="M1826 1014 c-3 -26 -6 -66 -6 -90 0 -38 3 -44 21 -44 20 0 21 4 17 55 -3 30 -1 55 2 55 4 0 14 -24 22 -52 11 -41 19 -54 36 -56 21 -3 22 1 24 67 1 39 2 79 2 88 1 10 -7 19 -16 21 -15 3 -18 -4 -18 -32 0 -45 -13 -46 -25 -3 -7 21 -17 33 -31 35 -18 3 -22 -4 -28 -44z"/> <path d="M2003 1050 c-21 -9 -23 -16 -23 -90 0 -88 5 -93 65 -70 49 19 71 114 35 150 -21 21 -42 24 -77 10z m55 -51 c5 -26 -16 -69 -34 -69 -11 0 -14 5 -10 16 3 9 6 29 6 46 0 23 4 29 17 26 10 -2 19 -10 21 -19z"/> <path d="M761 783 l-74 -66 -68 7 -68 6 -33 -40 c-23 -29 -38 -40 -54 -38 -20 3 -84 -44 -84 -61 0 -3 108 -5 240 -3 156 2 240 6 240 13 0 6 -5 20 -11 31 -10 18 -8 24 11 38 l22 17 -18 74 c-10 41 -21 77 -24 81 -3 3 -38 -23 -79 -59z m77 -26 c16 -45 15 -59 -5 -99 -23 -43 -31 -48 -78 -48 l-39 0 36 38 c31 31 35 40 26 57 -6 11 -15 23 -20 26 -9 6 46 59 61 59 4 0 12 -15 19 -33z m-68 -54 c0 -21 -46 -53 -76 -53 -24 0 -37 -6 -45 -21 -8 -15 -14 -18 -22 -10 -17 17 21 51 58 51 19 0 39 8 50 20 18 20 35 26 35 13z m-136 -12 c3 -4 -3 -16 -14 -26 -11 -10 -20 -24 -20 -32 0 -9 -16 -13 -56 -13 l-57 0 36 34 c20 19 42 36 49 39 21 9 56 8 62 -2z"/> <path d="M860 848 c0 -1 11 -39 25 -83 l25 -79 -21 -22 c-14 -15 -18 -29 -13 -48 5 -23 11 -26 50 -26 l44 0 0 98 c0 92 -1 99 -22 110 -13 6 -38 21 -55 32 -18 12 -33 20 -33 18z m77 -175 c-5 -49 -10 -58 -27 -48 -8 5 -6 14 5 32 9 14 15 36 12 49 -2 14 0 21 6 17 5 -3 7 -25 4 -50z"/> <path d="M1097 823 c-4 -3 -7 -15 -7 -25 0 -12 7 -18 25 -18 24 0 24 -1 18 -65 l-6 -65 27 0 c22 0 26 4 25 23 -1 12 -1 43 -1 70 2 40 5 47 22 47 13 0 20 7 20 20 0 18 -7 20 -58 20 -32 0 -62 -3 -65 -7z"/> <path d="M1284 823 c-24 -5 -34 -41 -34 -125 0 -41 3 -48 20 -48 16 0 20 7 20 30 0 17 4 30 9 30 5 0 14 -13 21 -30 14 -33 22 -37 39 -16 9 11 9 19 -1 35 -10 17 -10 25 0 41 18 30 15 68 -7 80 -20 10 -29 11 -67 3z m46 -48 c0 -16 -27 -32 -37 -22 -3 4 -3 13 0 22 8 20 37 20 37 0z"/> <path d="M1438 823 c-26 -4 -27 -6 -30 -86 -2 -45 -2 -83 -1 -85 1 -2 26 -1 57 3 46 6 56 11 56 26 0 15 -7 19 -35 19 -41 0 -47 17 -8 22 17 2 29 10 31 21 3 13 -3 17 -27 17 -45 0 -38 19 9 26 30 5 40 11 40 25 0 19 -23 22 -92 12z"/> <path d="M1613 818 c-12 -15 -53 -136 -53 -155 0 -20 34 -15 48 7 7 11 19 20 27 20 8 0 15 -9 15 -20 0 -15 7 -20 26 -20 19 0 24 4 20 18 -3 9 -10 43 -15 76 -14 79 -41 108 -68 74z"/> <path d="M1737 823 c-4 -3 -7 -44 -7 -90 0 -75 2 -83 19 -83 16 0 20 8 23 38 l3 37 23 -39 c21 -36 24 -38 40 -23 15 16 14 19 -6 46 -27 37 -27 39 -1 67 12 13 19 30 16 38 -9 23 -24 20 -43 -9 -9 -14 -21 -25 -26 -25 -6 0 -7 11 -4 25 5 20 3 25 -12 25 -10 0 -22 -3 -25 -7z"/> <path d="M1887 823 c-4 -3 -7 -44 -7 -90 0 -75 2 -83 19 -83 16 0 20 8 23 38 l3 37 23 -39 c21 -36 24 -38 40 -23 15 16 14 19 -7 47 -22 30 -22 32 -5 58 l18 27 6 -25 c6 -25 6 -25 12 -2 3 12 2 22 -3 22 -5 0 -9 6 -9 14 0 31 -24 28 -52 -5 l-30 -34 6 33 c5 26 2 32 -13 32 -10 0 -21 -3 -24 -7z"/> <path d="M2063 823 l-33 -4 0 -86 0 -86 38 7 c20 3 45 6 55 6 10 0 17 8 17 20 0 16 -7 20 -35 20 -41 0 -47 17 -8 22 17 2 29 10 31 21 3 13 -3 17 -27 17 -45 0 -38 19 9 26 30 5 40 11 40 25 0 20 -12 21 -87 12z"/> <path d="M2214 823 c-24 -5 -34 -41 -34 -125 0 -41 3 -48 20 -48 16 0 20 7 20 30 0 38 14 39 30 1 7 -18 17 -28 25 -25 9 4 12 0 8 -14 -3 -12 1 -22 10 -25 13 -5 14 1 10 31 -4 20 -12 46 -20 58 -11 18 -11 23 2 34 22 18 19 67 -4 80 -20 10 -29 11 -67 3z m46 -48 c0 -16 -27 -32 -37 -22 -3 4 -3 13 0 22 8 20 37 20 37 0z"/> <path d="M2365 805 c-32 -31 -31 -41 6 -76 34 -31 32 -57 -3 -38 -16 8 -22 8 -29 -2 -11 -18 -1 -27 38 -35 24 -5 36 -1 52 15 29 29 26 46 -9 73 -16 12 -30 28 -30 35 0 17 8 16 26 -2 22 -22 34 -18 34 10 0 23 -24 45 -50 45 -6 0 -22 -11 -35 -25z"/> <path d="M365 723 c-18 -16 -22 -24 -12 -20 10 4 24 7 32 7 7 0 15 9 18 20 7 26 -2 25 -38 -7z"/> <path d="M1957 620 c-54 -10 -61 -24 -7 -16 24 4 46 9 49 11 9 10 -5 11 -42 5z"/> <path d="M748 562 c-20 -2 -42 -10 -49 -18 -10 -13 -6 -14 32 -8 78 12 92 33 17 26z"/> <path d="M2185 493 c-41 -10 -36 -21 6 -16 63 8 94 22 49 21 -19 0 -44 -2 -55 -5z"/> </g> </svg> 