<?xml version="1.0" encoding="UTF-8"?>
<svg xmlns="http://www.w3.org/2000/svg" xmlns:xlink="http://www.w3.org/1999/xlink" width="400px" height="209px" viewBox="0 0 300 157" version="1.1">
<g id="surface1">
<path style=" stroke:none;fill-rule:nonzero;fill:rgb(100%,100%,100%);fill-opacity:1;" d="M 215.375 9.113281 C 212.085938 9.515625 189.421875 12.117188 164.96875 14.914062 L 120.554688 19.921875 L 91.109375 19.027344 C 74.945312 18.421875 56.472656 17.527344 49.992188 17.023438 C 37.015625 15.820312 35.214844 16.023438 26.730469 20.128906 C 18.746094 23.933594 16.652344 26.835938 18.347656 31.742188 C 19.847656 36.347656 18.949219 49.863281 16.855469 55.972656 C 14.957031 61.078125 14.851562 66.988281 16.351562 74.097656 C 17.246094 78.203125 17.152344 80.597656 15.757812 86.8125 C 13.957031 95.019531 14.257812 101.828125 16.855469 107.9375 C 17.648438 109.839844 18.253906 112.84375 18.253906 114.542969 C 18.253906 116.648438 19.046875 118.550781 20.542969 119.953125 C 22.640625 121.957031 23.9375 122.152344 35.320312 122.152344 C 42.101562 122.152344 52.382812 122.851562 58.179688 123.65625 C 67.558594 124.859375 70.550781 124.859375 88.519531 123.160156 C 104.382812 121.554688 109.972656 121.453125 115.261719 122.253906 C 120.058594 122.953125 127.242188 122.953125 139.621094 122.253906 C 163.777344 120.753906 176.550781 120.855469 188.324219 122.757812 C 200.507812 124.753906 209.785156 124.355469 236.835938 120.753906 L 256.296875 118.046875 L 259.894531 114.148438 C 264.980469 108.535156 266.878906 101.726562 267.875 83.808594 C 268.378906 75.394531 269.078125 65.480469 269.375 61.777344 C 269.871094 56.273438 269.570312 53.867188 267.875 49.164062 C 266.675781 45.957031 265.976562 42.550781 266.378906 41.75 C 266.675781 40.949219 266.179688 39.054688 265.277344 37.644531 C 263.785156 35.34375 263.785156 34.941406 265.183594 32.84375 C 267.476562 29.539062 267.179688 26.433594 264.085938 23.03125 C 260.890625 19.523438 256.195312 18.125 247.511719 18.019531 C 241.429688 18.019531 241.726562 18.226562 234.9375 10.613281 C 232.945312 8.3125 231.945312 8.011719 226.953125 8.113281 C 223.859375 8.207031 218.671875 8.609375 215.375 9.113281 Z M 233.839844 14.121094 C 234.441406 15.222656 234.835938 17.320312 234.640625 18.824219 L 234.339844 21.527344 L 246.414062 22.125 C 253.007812 22.527344 259.390625 23.328125 260.589844 23.933594 C 265.183594 26.433594 262.183594 33.542969 255.699219 35.546875 C 252.402344 36.648438 255.402344 39.054688 259.894531 39.054688 C 264.1875 39.054688 264.578125 39.546875 262.289062 42.058594 C 260.992188 43.457031 261.1875 44.257812 263.386719 48.558594 C 265.679688 53.066406 265.882812 54.371094 265.378906 61.078125 C 265.082031 65.179688 264.382812 75.597656 263.878906 84.105469 C 262.984375 99.429688 261.1875 107.535156 257.5 112.246094 C 256.597656 113.347656 250.808594 114.542969 235.839844 116.445312 C 206.496094 120.351562 201 120.652344 189.722656 118.75 C 176.148438 116.546875 136.726562 117.050781 115.5625 119.652344 C 108.675781 120.558594 114.769531 118.449219 124.046875 116.75 L 132.535156 115.25 L 124.046875 115.847656 C 119.359375 116.144531 104.785156 117.347656 91.609375 118.550781 C 71.144531 120.351562 66.460938 120.453125 59.175781 119.449219 C 54.480469 118.851562 44.101562 118.253906 36.015625 118.152344 C 21.542969 118.046875 21.449219 118.046875 21.644531 115.746094 C 21.746094 114.542969 22.144531 113.039062 22.539062 112.441406 C 22.9375 111.84375 22.445312 109.839844 21.34375 107.9375 C 18.347656 102.734375 17.75 95.121094 19.847656 87.511719 C 21.34375 81.90625 21.449219 80.105469 20.441406 74.695312 C 18.847656 66.085938 18.949219 61.078125 20.84375 56.46875 C 23.238281 50.863281 24.242188 34.148438 22.445312 31.339844 C 21.644531 30.035156 21.242188 28.4375 21.542969 27.636719 C 21.839844 26.9375 25.539062 24.828125 29.730469 23.132812 L 37.3125 19.921875 L 49.488281 21.230469 C 56.175781 21.929688 73.046875 22.433594 87.019531 22.527344 C 110.277344 22.527344 111.871094 22.628906 105.585938 23.730469 C 98.09375 25.128906 96.203125 26.03125 100.695312 26.03125 C 103.683594 26.03125 180.945312 17.421875 207.390625 14.121094 C 228.351562 11.511719 232.542969 11.511719 233.839844 14.121094 Z M 233.839844 14.121094 "/>
<path style=" stroke:none;fill-rule:nonzero;fill:rgb(100%,100%,100%);fill-opacity:1;" d="M 35.8125 33.839844 C 35.617188 34.242188 35.019531 36.347656 34.621094 38.550781 L 33.921875 42.550781 L 38.113281 38.25 C 40.3125 35.949219 42.203125 33.839844 42.203125 33.542969 C 42.203125 32.738281 36.417969 32.945312 35.8125 33.839844 Z M 35.8125 33.839844 "/>
<path style=" stroke:none;fill-rule:nonzero;fill:rgb(100%,100%,100%);fill-opacity:1;" d="M 62.863281 40.648438 C 61.570312 41.953125 62.164062 45.855469 63.765625 46.460938 C 65.957031 47.363281 68.351562 45.15625 67.960938 42.65625 C 67.652344 40.554688 64.261719 39.25 62.863281 40.648438 Z M 62.863281 40.648438 "/>
<path style=" stroke:none;fill-rule:nonzero;fill:rgb(100%,100%,100%);fill-opacity:1;" d="M 84.121094 41.554688 C 84.027344 42.058594 84.027344 45.15625 84.121094 48.261719 C 84.222656 51.46875 83.824219 54.070312 83.328125 54.070312 C 82.828125 54.070312 79.332031 52.96875 75.738281 51.5625 C 67.355469 48.363281 62.464844 48.363281 56.175781 51.5625 C 53.382812 52.96875 51.183594 54.371094 51.183594 54.566406 C 51.183594 54.871094 52.582031 57.570312 54.285156 60.675781 C 56.378906 64.285156 57.777344 65.878906 58.375 65.28125 C 59.074219 64.582031 58.570312 62.78125 57.078125 60.078125 L 54.675781 55.871094 L 57.171875 54.070312 C 58.570312 52.96875 59.96875 52.46875 60.367188 52.867188 C 60.769531 53.269531 61.269531 60.179688 61.363281 68.089844 C 61.671875 84.308594 63.460938 88.210938 63.964844 73.789062 C 64.066406 68.984375 64.558594 65.085938 64.960938 65.085938 C 65.359375 65.085938 67.054688 65.984375 68.65625 67.082031 C 70.949219 68.585938 71.75 69.992188 72.152344 73.191406 C 72.851562 79.003906 74.742188 79.199219 75.441406 73.695312 C 76.242188 67.988281 75.644531 66.382812 72.050781 64.480469 C 69.355469 63.183594 69.152344 62.578125 69.152344 57.476562 C 69.152344 52.570312 69.355469 51.964844 70.949219 52.46875 C 71.84375 52.867188 75.242188 54.164062 78.4375 55.367188 L 84.222656 57.570312 L 84.027344 63.585938 C 83.824219 67.082031 84.121094 69.386719 84.726562 69.089844 C 85.222656 68.789062 85.425781 64.285156 85.324219 58.773438 L 84.921875 49.0625 L 88.519531 49.0625 C 91.714844 49.0625 92.105469 48.765625 92.105469 46.5625 C 92.105469 44.351562 91.714844 44.054688 88.714844 44.054688 C 86.320312 44.054688 85.121094 43.558594 84.820312 42.253906 C 84.523438 41.347656 84.222656 40.949219 84.121094 41.554688 Z M 66.253906 53.371094 C 66.160156 53.773438 66.160156 55.871094 66.160156 58.074219 C 66.160156 60.273438 65.761719 62.082031 65.257812 62.082031 C 64.363281 62.082031 63.367188 55.070312 63.964844 53.066406 C 64.363281 51.871094 66.359375 52.167969 66.253906 53.371094 Z M 66.253906 53.371094 "/>
<path style=" stroke:none;fill-rule:nonzero;fill:rgb(100%,100%,100%);fill-opacity:1;" d="M 92.410156 49.761719 C 89.3125 51.871094 89.515625 53.066406 93.007812 53.066406 C 95.402344 53.066406 95.90625 52.664062 95.90625 50.5625 C 95.90625 47.664062 95.402344 47.5625 92.410156 49.761719 Z M 92.410156 49.761719 "/>
<path style=" stroke:none;fill-rule:nonzero;fill:rgb(100%,100%,100%);fill-opacity:1;" d="M 117.0625 56.777344 C 117.0625 63.976562 115.765625 66.484375 113.773438 63.679688 C 112.871094 62.476562 111.769531 61.980469 110.671875 62.382812 C 108.574219 63.183594 108.675781 64.683594 111.070312 67.082031 C 116.0625 72.09375 121.058594 67.289062 121.058594 57.476562 C 121.058594 51.765625 120.851562 51.066406 119.054688 51.066406 C 117.265625 51.066406 117.0625 51.765625 117.0625 56.777344 Z M 117.0625 56.777344 "/>
<path style=" stroke:none;fill-rule:nonzero;fill:rgb(100%,100%,100%);fill-opacity:1;" d="M 128.9375 53.773438 C 126.84375 58.976562 124.046875 67.382812 124.046875 68.285156 C 124.046875 68.6875 125.148438 69.089844 126.542969 69.089844 C 128.136719 69.089844 129.039062 68.492188 129.039062 67.585938 C 129.039062 66.785156 129.238281 66.085938 129.441406 66.085938 C 129.636719 66.085938 130.539062 65.785156 131.433594 65.480469 C 132.636719 65.085938 133.035156 65.480469 133.035156 66.988281 C 133.035156 68.585938 133.632812 69.089844 135.523438 69.089844 C 136.921875 69.089844 138.019531 68.789062 138.019531 68.390625 C 138.019531 66.1875 135.625 54.265625 134.824219 52.765625 C 133.429688 50.0625 130.140625 50.667969 128.9375 53.773438 Z M 128.9375 53.773438 "/>
<path style=" stroke:none;fill-rule:nonzero;fill:rgb(100%,100%,100%);fill-opacity:1;" d="M 142.210938 52.269531 C 142.210938 52.96875 141.8125 57.074219 141.417969 61.28125 L 140.722656 69.089844 L 146.003906 69.089844 L 146.003906 60.078125 C 146.003906 51.964844 145.808594 51.066406 144.214844 51.066406 C 143.210938 51.066406 142.316406 51.664062 142.210938 52.269531 Z M 142.210938 52.269531 "/>
<path style=" stroke:none;fill-rule:nonzero;fill:rgb(100%,100%,100%);fill-opacity:1;" d="M 158.980469 56.273438 C 158.980469 59.171875 158.683594 63.277344 158.382812 65.28125 C 157.789062 68.882812 157.882812 69.089844 160.285156 69.089844 C 162.574219 69.089844 162.875 68.585938 163.171875 65.386719 C 163.375 62.679688 163.972656 61.476562 165.269531 61.28125 C 166.769531 60.972656 166.964844 61.476562 166.367188 64.984375 C 165.769531 68.882812 165.871094 69.089844 168.359375 69.089844 L 170.960938 69.089844 L 170.960938 60.078125 C 170.960938 51.765625 170.859375 51.066406 168.964844 51.066406 C 167.363281 51.066406 166.964844 51.765625 166.964844 54.566406 C 166.964844 57.476562 166.570312 58.074219 164.867188 58.074219 C 162.976562 58.074219 162.773438 57.671875 163.273438 54.566406 C 163.777344 51.367188 163.675781 51.066406 161.375 51.066406 C 159.183594 51.066406 158.980469 51.46875 158.980469 56.273438 Z M 158.980469 56.273438 "/>
<path style=" stroke:none;fill-rule:nonzero;fill:rgb(100%,100%,100%);fill-opacity:1;" d="M 175.253906 52.269531 C 175.253906 52.96875 174.957031 57.074219 174.554688 61.28125 L 173.753906 69.089844 L 176.351562 69.089844 C 178.941406 69.089844 178.941406 68.984375 178.941406 61.683594 C 178.941406 57.570312 179.242188 53.566406 179.546875 52.664062 C 180.042969 51.46875 179.546875 51.066406 177.75 51.066406 C 176.351562 51.066406 175.253906 51.664062 175.253906 52.269531 Z M 175.253906 52.269531 "/>
<path style=" stroke:none;fill-rule:nonzero;fill:rgb(100%,100%,100%);fill-opacity:1;" d="M 182.539062 55.667969 C 182.238281 58.277344 181.941406 62.28125 181.941406 64.683594 C 181.941406 68.492188 182.238281 69.089844 184.039062 69.089844 C 186.03125 69.089844 186.132812 68.6875 185.734375 63.585938 C 185.433594 60.574219 185.632812 58.074219 185.929688 58.074219 C 186.328125 58.074219 187.328125 60.480469 188.128906 63.277344 C 189.226562 67.382812 190.027344 68.6875 191.722656 68.882812 C 193.820312 69.191406 193.914062 68.789062 194.117188 62.175781 C 194.21875 58.277344 194.3125 54.265625 194.3125 53.371094 C 194.414062 52.363281 193.613281 51.46875 192.71875 51.265625 C 191.21875 50.964844 190.921875 51.664062 190.921875 54.472656 C 190.921875 58.976562 189.628906 59.070312 188.425781 54.769531 C 187.726562 52.664062 186.730469 51.46875 185.332031 51.265625 C 183.535156 50.964844 183.136719 51.664062 182.539062 55.667969 Z M 182.539062 55.667969 "/>
<path style=" stroke:none;fill-rule:nonzero;fill:rgb(100%,100%,100%);fill-opacity:1;" d="M 200.199219 52.066406 C 198.105469 52.96875 197.910156 53.671875 197.910156 61.078125 C 197.910156 69.890625 198.410156 70.386719 204.394531 68.089844 C 209.292969 66.1875 211.480469 56.671875 207.894531 53.066406 C 205.789062 50.964844 203.695312 50.667969 200.199219 52.066406 Z M 205.695312 57.175781 C 206.191406 59.777344 204.09375 64.078125 202.296875 64.078125 C 201.207031 64.078125 200.898438 63.585938 201.300781 62.476562 C 201.597656 61.578125 201.90625 59.574219 201.90625 57.875 C 201.90625 55.574219 202.296875 54.96875 203.601562 55.273438 C 204.597656 55.46875 205.492188 56.273438 205.695312 57.175781 Z M 205.695312 57.175781 "/>
<path style=" stroke:none;fill-rule:nonzero;fill:rgb(100%,100%,100%);fill-opacity:1;" d="M 76.242188 78.796875 L 68.855469 85.410156 L 62.0625 84.710938 L 55.28125 84.105469 L 51.984375 88.117188 C 49.691406 91.015625 48.191406 92.117188 46.597656 91.914062 C 44.597656 91.613281 38.214844 96.324219 38.214844 98.023438 C 38.214844 98.320312 48.992188 98.527344 62.164062 98.320312 C 77.738281 98.125 86.125 97.722656 86.125 97.023438 C 86.125 96.425781 85.621094 95.019531 85.023438 93.917969 C 84.027344 92.117188 84.222656 91.519531 86.125 90.113281 L 88.3125 88.414062 L 86.515625 81 C 85.519531 76.894531 84.421875 73.296875 84.121094 72.894531 C 83.824219 72.59375 80.332031 75.199219 76.242188 78.796875 Z M 83.925781 81.402344 C 85.519531 85.90625 85.425781 87.3125 83.421875 91.316406 C 81.132812 95.625 80.332031 96.121094 75.644531 96.121094 L 71.75 96.121094 L 75.339844 92.316406 C 78.4375 89.214844 78.832031 88.3125 77.9375 86.613281 C 77.339844 85.503906 76.4375 84.308594 75.941406 84.003906 C 75.039062 83.40625 80.535156 78.097656 82.027344 78.097656 C 82.425781 78.097656 83.226562 79.601562 83.925781 81.402344 Z M 77.136719 86.8125 C 77.136719 88.910156 72.542969 92.117188 69.550781 92.117188 C 67.160156 92.117188 65.863281 92.714844 65.0625 94.21875 C 64.261719 95.71875 63.664062 96.027344 62.863281 95.222656 C 61.167969 93.515625 64.960938 90.113281 68.65625 90.113281 C 70.550781 90.113281 72.542969 89.3125 73.640625 88.117188 C 75.441406 86.109375 77.136719 85.503906 77.136719 86.8125 Z M 63.5625 88.015625 C 63.859375 88.414062 63.265625 89.617188 62.164062 90.617188 C 61.066406 91.613281 60.171875 93.023438 60.171875 93.816406 C 60.171875 94.71875 58.570312 95.121094 54.582031 95.121094 L 48.890625 95.121094 L 52.488281 91.71875 C 54.480469 89.8125 56.679688 88.117188 57.378906 87.808594 C 59.472656 86.914062 62.964844 87.007812 63.5625 88.015625 Z M 63.5625 88.015625 "/>
<path style=" stroke:none;fill-rule:nonzero;fill:rgb(100%,100%,100%);fill-opacity:1;" d="M 86.125 72.289062 C 86.125 72.390625 87.214844 76.195312 88.613281 80.597656 L 91.109375 88.507812 L 89.011719 90.71875 C 87.617188 92.21875 87.214844 93.621094 87.71875 95.523438 C 88.21875 97.828125 88.816406 98.125 92.710938 98.125 L 97.097656 98.125 L 97.097656 88.3125 C 97.097656 79.097656 97.003906 78.398438 94.910156 77.296875 C 93.605469 76.699219 91.109375 75.199219 89.414062 74.097656 C 87.617188 72.894531 86.125 72.09375 86.125 72.289062 Z M 93.808594 89.8125 C 93.308594 94.71875 92.804688 95.625 91.109375 94.617188 C 90.316406 94.121094 90.511719 93.21875 91.609375 91.417969 C 92.507812 90.011719 93.109375 87.808594 92.804688 86.511719 C 92.609375 85.105469 92.804688 84.40625 93.410156 84.804688 C 93.902344 85.105469 94.109375 87.3125 93.808594 89.8125 Z M 93.808594 89.8125 "/>
<path style=" stroke:none;fill-rule:nonzero;fill:rgb(100%,100%,100%);fill-opacity:1;" d="M 109.777344 74.796875 C 109.375 75.09375 109.078125 76.296875 109.078125 77.296875 C 109.078125 78.5 109.777344 79.097656 111.574219 79.097656 C 113.96875 79.097656 113.96875 79.199219 113.371094 85.609375 L 112.765625 92.117188 L 115.46875 92.117188 C 117.65625 92.117188 118.058594 91.71875 117.964844 89.8125 C 117.863281 88.609375 117.863281 85.503906 117.863281 82.808594 C 118.058594 78.796875 118.355469 78.097656 120.058594 78.097656 C 121.355469 78.097656 122.054688 77.398438 122.054688 76.09375 C 122.054688 74.292969 121.355469 74.097656 116.261719 74.097656 C 113.074219 74.097656 110.074219 74.394531 109.777344 74.796875 Z M 109.777344 74.796875 "/>
<path style=" stroke:none;fill-rule:nonzero;fill:rgb(100%,100%,100%);fill-opacity:1;" d="M 128.445312 74.796875 C 126.042969 75.292969 125.042969 78.902344 125.042969 87.3125 C 125.042969 91.417969 125.34375 92.117188 127.046875 92.117188 C 128.640625 92.117188 129.039062 91.417969 129.039062 89.113281 C 129.039062 87.410156 129.441406 86.109375 129.933594 86.109375 C 130.4375 86.109375 131.332031 87.410156 132.03125 89.113281 C 133.429688 92.417969 134.230469 92.816406 135.925781 90.71875 C 136.828125 89.617188 136.828125 88.816406 135.832031 87.210938 C 134.824219 85.503906 134.824219 84.710938 135.832031 83.109375 C 137.621094 80.105469 137.320312 76.296875 135.132812 75.09375 C 133.128906 74.097656 132.234375 73.996094 128.445312 74.796875 Z M 133.035156 79.601562 C 133.035156 81.203125 130.335938 82.808594 129.339844 81.800781 C 129.039062 81.402344 129.039062 80.503906 129.339844 79.601562 C 130.140625 77.597656 133.035156 77.597656 133.035156 79.601562 Z M 133.035156 79.601562 "/>
<path style=" stroke:none;fill-rule:nonzero;fill:rgb(100%,100%,100%);fill-opacity:1;" d="M 143.8125 74.796875 C 141.214844 75.199219 141.113281 75.394531 140.816406 83.40625 C 140.621094 87.910156 140.621094 91.71875 140.722656 91.914062 C 140.816406 92.117188 143.3125 92.015625 146.40625 91.613281 C 150.996094 91.015625 151.992188 90.515625 151.992188 89.011719 C 151.992188 87.511719 151.296875 87.109375 148.5 87.109375 C 144.410156 87.109375 143.8125 85.410156 147.707031 84.90625 C 149.402344 84.710938 150.597656 83.910156 150.800781 82.808594 C 151.097656 81.503906 150.503906 81.101562 148.101562 81.101562 C 143.609375 81.101562 144.308594 79.199219 149.003906 78.5 C 151.992188 77.996094 152.992188 77.398438 152.992188 76 C 152.992188 74.097656 150.699219 73.789062 143.8125 74.796875 Z M 143.8125 74.796875 "/>
<path style=" stroke:none;fill-rule:nonzero;fill:rgb(100%,100%,100%);fill-opacity:1;" d="M 161.28125 75.292969 C 160.078125 76.800781 155.988281 88.910156 155.988281 90.8125 C 155.988281 92.816406 159.378906 92.316406 160.777344 90.113281 C 161.476562 89.011719 162.679688 88.117188 163.472656 88.117188 C 164.269531 88.117188 164.96875 89.011719 164.96875 90.113281 C 164.96875 91.613281 165.667969 92.117188 167.570312 92.117188 C 169.460938 92.117188 169.960938 91.71875 169.5625 90.316406 C 169.265625 89.414062 168.566406 86.007812 168.0625 82.707031 C 166.664062 74.796875 163.972656 71.894531 161.28125 75.292969 Z M 161.28125 75.292969 "/>
<path style=" stroke:none;fill-rule:nonzero;fill:rgb(100%,100%,100%);fill-opacity:1;" d="M 173.652344 74.796875 C 173.257812 75.09375 172.953125 79.199219 172.953125 83.808594 C 172.953125 91.316406 173.15625 92.117188 174.851562 92.117188 C 176.445312 92.117188 176.847656 91.316406 177.144531 88.3125 L 177.453125 84.609375 L 179.742188 88.507812 C 181.839844 92.117188 182.136719 92.316406 183.738281 90.8125 C 185.230469 89.214844 185.136719 88.910156 183.136719 86.214844 C 180.441406 82.503906 180.441406 82.304688 183.039062 79.5 C 184.234375 78.203125 184.933594 76.496094 184.632812 75.691406 C 183.738281 73.398438 182.238281 73.695312 180.339844 76.597656 C 179.445312 77.996094 178.246094 79.097656 177.75 79.097656 C 177.144531 79.097656 177.050781 77.996094 177.351562 76.597656 C 177.84375 74.59375 177.648438 74.097656 176.148438 74.097656 C 175.152344 74.097656 173.957031 74.394531 173.652344 74.796875 Z M 173.652344 74.796875 "/>
<path style=" stroke:none;fill-rule:nonzero;fill:rgb(100%,100%,100%);fill-opacity:1;" d="M 188.628906 74.796875 C 188.230469 75.09375 187.929688 79.199219 187.929688 83.808594 C 187.929688 91.316406 188.128906 92.117188 189.824219 92.117188 C 191.425781 92.117188 191.816406 91.316406 192.125 88.3125 L 192.421875 84.609375 L 194.714844 88.507812 C 196.808594 92.117188 197.109375 92.316406 198.710938 90.8125 C 200.199219 89.214844 200.105469 88.910156 198.011719 86.109375 C 195.8125 83.109375 195.8125 82.902344 197.507812 80.300781 L 199.304688 77.597656 L 199.902344 80.105469 C 200.507812 82.605469 200.507812 82.605469 201.105469 80.300781 C 201.402344 79.097656 201.300781 78.097656 200.804688 78.097656 C 200.304688 78.097656 199.902344 77.5 199.902344 76.699219 C 199.902344 73.59375 197.507812 73.890625 194.714844 77.195312 L 191.722656 80.597656 L 192.320312 77.296875 C 192.820312 74.695312 192.515625 74.097656 191.023438 74.097656 C 190.027344 74.097656 188.929688 74.394531 188.628906 74.796875 Z M 188.628906 74.796875 "/>
<path style=" stroke:none;fill-rule:nonzero;fill:rgb(100%,100%,100%);fill-opacity:1;" d="M 206.191406 74.796875 L 202.902344 75.199219 L 202.902344 92.417969 L 206.691406 91.71875 C 208.6875 91.417969 211.183594 91.121094 212.179688 91.121094 C 213.175781 91.121094 213.875 90.316406 213.875 89.113281 C 213.875 87.511719 213.175781 87.109375 210.382812 87.109375 C 206.292969 87.109375 205.695312 85.410156 209.589844 84.90625 C 211.285156 84.710938 212.480469 83.910156 212.683594 82.808594 C 212.980469 81.503906 212.382812 81.101562 209.988281 81.101562 C 205.492188 81.101562 206.191406 79.199219 210.886719 78.5 C 213.875 77.996094 214.878906 77.398438 214.878906 76 C 214.878906 73.996094 213.679688 73.890625 206.191406 74.796875 Z M 206.191406 74.796875 "/>
<path style=" stroke:none;fill-rule:nonzero;fill:rgb(100%,100%,100%);fill-opacity:1;" d="M 221.261719 74.796875 C 218.867188 75.292969 217.871094 78.902344 217.871094 87.3125 C 217.871094 91.417969 218.171875 92.117188 219.867188 92.117188 C 221.46875 92.117188 221.867188 91.417969 221.867188 89.113281 C 221.867188 85.308594 223.265625 85.207031 224.859375 89.011719 C 225.558594 90.8125 226.554688 91.820312 227.355469 91.519531 C 228.25 91.121094 228.546875 91.519531 228.15625 92.921875 C 227.847656 94.121094 228.25 95.121094 229.152344 95.421875 C 230.449219 95.921875 230.550781 95.316406 230.148438 92.316406 C 229.75 90.316406 228.949219 87.714844 228.15625 86.511719 C 227.054688 84.710938 227.054688 84.207031 228.351562 83.109375 C 230.550781 81.308594 230.25 76.402344 227.949219 75.09375 C 225.957031 74.097656 225.054688 73.996094 221.261719 74.796875 Z M 225.855469 79.601562 C 225.855469 81.203125 223.164062 82.808594 222.164062 81.800781 C 221.867188 81.402344 221.867188 80.503906 222.164062 79.601562 C 222.957031 77.597656 225.855469 77.597656 225.855469 79.601562 Z M 225.855469 79.601562 "/>
<path style=" stroke:none;fill-rule:nonzero;fill:rgb(100%,100%,100%);fill-opacity:1;" d="M 236.335938 76.597656 C 233.140625 79.703125 233.242188 80.703125 236.929688 84.207031 C 240.332031 87.3125 240.125 89.917969 236.632812 88.015625 C 235.039062 87.210938 234.441406 87.210938 233.746094 88.210938 C 232.644531 90.011719 233.640625 90.914062 237.535156 91.71875 C 239.929688 92.21875 241.125 91.820312 242.726562 90.214844 C 245.621094 87.3125 245.324219 85.609375 241.820312 82.902344 C 240.230469 81.707031 238.832031 80.105469 238.832031 79.402344 C 238.832031 77.699219 239.632812 77.800781 241.429688 79.601562 C 243.621094 81.800781 244.820312 81.402344 244.820312 78.601562 C 244.820312 76.296875 242.425781 74.097656 239.828125 74.097656 C 239.230469 74.097656 237.628906 75.199219 236.335938 76.597656 Z M 236.335938 76.597656 "/>
<path style=" stroke:none;fill-rule:nonzero;fill:rgb(100%,100%,100%);fill-opacity:1;" d="M 36.714844 84.804688 C 34.917969 86.410156 34.519531 87.210938 35.515625 86.8125 C 36.511719 86.410156 37.910156 86.109375 38.710938 86.109375 C 39.410156 86.109375 40.210938 85.207031 40.507812 84.105469 C 41.207031 81.503906 40.3125 81.605469 36.714844 84.804688 Z M 36.714844 84.804688 "/>
<path style=" stroke:none;fill-rule:nonzero;fill:rgb(100%,100%,100%);fill-opacity:1;" d="M 195.617188 95.121094 C 190.222656 96.121094 189.523438 97.527344 194.917969 96.726562 C 197.3125 96.324219 199.503906 95.820312 199.808594 95.625 C 200.703125 94.617188 199.304688 94.523438 195.617188 95.121094 Z M 195.617188 95.121094 "/>
<path style=" stroke:none;fill-rule:nonzero;fill:rgb(100%,100%,100%);fill-opacity:1;" d="M 74.945312 100.933594 C 72.945312 101.128906 70.753906 101.929688 70.054688 102.734375 C 69.050781 104.03125 69.449219 104.132812 73.242188 103.535156 C 81.03125 102.332031 82.425781 100.222656 74.945312 100.933594 Z M 74.945312 100.933594 "/>
<path style=" stroke:none;fill-rule:nonzero;fill:rgb(100%,100%,100%);fill-opacity:1;" d="M 218.375 107.835938 C 214.277344 108.839844 214.777344 109.941406 218.96875 109.4375 C 225.257812 108.636719 228.351562 107.238281 223.859375 107.339844 C 221.960938 107.339844 219.464844 107.535156 218.375 107.835938 Z M 218.375 107.835938 "/>
</g>
</svg>
